<mxfile host="app.diagrams.net" agent="Mozilla/5.0 (Windows NT 10.0; Win64; x64) AppleWebKit/537.36 (KHTML, like Gecko) Chrome/138.0.0.0 Safari/537.36" version="28.0.7">
  <diagram name="Page-1" id="RWqVQbvTK5CCkM-w5bE9">
    <mxGraphModel dx="2800" dy="2184" grid="1" gridSize="10" guides="1" tooltips="1" connect="1" arrows="1" fold="1" page="0" pageScale="1" pageWidth="850" pageHeight="1100" math="0" shadow="0">
      <root>
        <mxCell id="0" />
        <mxCell id="1" parent="0" />
        <mxCell id="dCO69aYNQCSRGYiKLIwo-19" style="edgeStyle=orthogonalEdgeStyle;rounded=0;orthogonalLoop=1;jettySize=auto;html=1;exitX=0.5;exitY=1;exitDx=0;exitDy=0;entryX=0.5;entryY=0;entryDx=0;entryDy=0;" edge="1" parent="1" source="dCO69aYNQCSRGYiKLIwo-1">
          <mxGeometry relative="1" as="geometry">
            <mxPoint x="35" y="-540" as="targetPoint" />
          </mxGeometry>
        </mxCell>
        <mxCell id="dCO69aYNQCSRGYiKLIwo-1" value="&lt;h1&gt;start&lt;/h1&gt;" style="ellipse;whiteSpace=wrap;html=1;fillColor=#d5e8d4;strokeColor=#82b366;" vertex="1" parent="1">
          <mxGeometry x="-55" y="-730" width="180" height="80" as="geometry" />
        </mxCell>
        <mxCell id="dCO69aYNQCSRGYiKLIwo-18" style="edgeStyle=orthogonalEdgeStyle;rounded=0;orthogonalLoop=1;jettySize=auto;html=1;exitX=0.5;exitY=1;exitDx=0;exitDy=0;" edge="1" parent="1">
          <mxGeometry relative="1" as="geometry">
            <mxPoint x="36" y="-310" as="targetPoint" />
            <mxPoint x="35" y="-410" as="sourcePoint" />
          </mxGeometry>
        </mxCell>
        <mxCell id="dCO69aYNQCSRGYiKLIwo-7" value="Recognize the face&lt;div&gt;run&lt;/div&gt;&lt;div&gt;face_recognize&lt;/div&gt;" style="shape=parallelogram;perimeter=parallelogramPerimeter;whiteSpace=wrap;html=1;fixedSize=1;fillColor=#bac8d3;strokeColor=#23445d;" vertex="1" parent="1">
          <mxGeometry x="-80" y="-300" width="250" height="120" as="geometry" />
        </mxCell>
        <mxCell id="dCO69aYNQCSRGYiKLIwo-24" value="" style="edgeStyle=orthogonalEdgeStyle;rounded=0;orthogonalLoop=1;jettySize=auto;html=1;" edge="1" parent="1" source="dCO69aYNQCSRGYiKLIwo-8">
          <mxGeometry relative="1" as="geometry">
            <mxPoint x="1390" y="-670" as="targetPoint" />
          </mxGeometry>
        </mxCell>
        <mxCell id="dCO69aYNQCSRGYiKLIwo-8" value="face&lt;div&gt;recognized&lt;/div&gt;" style="rhombus;whiteSpace=wrap;html=1;fillColor=#cdeb8b;strokeColor=#36393d;" vertex="1" parent="1">
          <mxGeometry x="-40" y="-90" width="150" height="140" as="geometry" />
        </mxCell>
        <mxCell id="dCO69aYNQCSRGYiKLIwo-12" value="stored in csv file&lt;div&gt;with Registration&lt;/div&gt;&lt;div&gt;Number &amp;amp; Date&lt;/div&gt;&lt;div&gt;time of entry&lt;/div&gt;" style="shape=parallelogram;perimeter=parallelogramPerimeter;whiteSpace=wrap;html=1;fixedSize=1;fillColor=#ffcc99;strokeColor=#36393d;" vertex="1" parent="1">
          <mxGeometry x="-130" y="140" width="350" height="100" as="geometry" />
        </mxCell>
        <mxCell id="dCO69aYNQCSRGYiKLIwo-14" value="End" style="ellipse;whiteSpace=wrap;html=1;fillColor=#ffff88;strokeColor=#36393d;" vertex="1" parent="1">
          <mxGeometry x="-30" y="330" width="120" height="80" as="geometry" />
        </mxCell>
        <mxCell id="dCO69aYNQCSRGYiKLIwo-15" value="" style="endArrow=classic;html=1;rounded=0;" edge="1" parent="1">
          <mxGeometry width="50" height="50" relative="1" as="geometry">
            <mxPoint x="34" y="50" as="sourcePoint" />
            <mxPoint x="34" y="140" as="targetPoint" />
            <Array as="points" />
          </mxGeometry>
        </mxCell>
        <mxCell id="dCO69aYNQCSRGYiKLIwo-16" value="" style="endArrow=classic;html=1;rounded=0;" edge="1" parent="1">
          <mxGeometry width="50" height="50" relative="1" as="geometry">
            <mxPoint x="34" y="-180" as="sourcePoint" />
            <mxPoint x="34" y="-90" as="targetPoint" />
            <Array as="points" />
          </mxGeometry>
        </mxCell>
        <mxCell id="dCO69aYNQCSRGYiKLIwo-17" value="" style="endArrow=classic;html=1;rounded=0;" edge="1" parent="1">
          <mxGeometry width="50" height="50" relative="1" as="geometry">
            <mxPoint x="34" y="240" as="sourcePoint" />
            <mxPoint x="34" y="330" as="targetPoint" />
            <Array as="points" />
          </mxGeometry>
        </mxCell>
        <mxCell id="dCO69aYNQCSRGYiKLIwo-20" value="store the face&lt;div&gt;data in folder&lt;/div&gt;&lt;div&gt;on your name&lt;/div&gt;" style="rounded=0;whiteSpace=wrap;html=1;fillColor=#e1d5e7;strokeColor=#9673a6;" vertex="1" parent="1">
          <mxGeometry x="840" y="-290" width="410" height="90" as="geometry" />
        </mxCell>
        <mxCell id="dCO69aYNQCSRGYiKLIwo-21" value="Give your&lt;div&gt;photograph&lt;/div&gt;" style="rounded=0;whiteSpace=wrap;html=1;fillColor=#ffe6cc;strokeColor=#d79b00;" vertex="1" parent="1">
          <mxGeometry x="840" y="-530" width="420" height="100" as="geometry" />
        </mxCell>
        <mxCell id="dCO69aYNQCSRGYiKLIwo-25" value="" style="endArrow=classic;html=1;rounded=0;" edge="1" parent="1">
          <mxGeometry width="50" height="50" relative="1" as="geometry">
            <mxPoint x="1030" y="-660" as="sourcePoint" />
            <mxPoint x="1390" y="-660" as="targetPoint" />
          </mxGeometry>
        </mxCell>
        <mxCell id="dCO69aYNQCSRGYiKLIwo-27" value="" style="endArrow=classic;html=1;rounded=0;entryX=0.5;entryY=0;entryDx=0;entryDy=0;" edge="1" parent="1" target="dCO69aYNQCSRGYiKLIwo-21">
          <mxGeometry width="50" height="50" relative="1" as="geometry">
            <mxPoint x="1050" y="-670" as="sourcePoint" />
            <mxPoint x="460" y="-100" as="targetPoint" />
          </mxGeometry>
        </mxCell>
        <mxCell id="dCO69aYNQCSRGYiKLIwo-30" value="" style="endArrow=classic;html=1;rounded=0;entryX=1;entryY=0.5;entryDx=0;entryDy=0;" edge="1" parent="1" target="dCO69aYNQCSRGYiKLIwo-7">
          <mxGeometry width="50" height="50" relative="1" as="geometry">
            <mxPoint x="830" y="-240" as="sourcePoint" />
            <mxPoint x="460" y="-100" as="targetPoint" />
          </mxGeometry>
        </mxCell>
        <mxCell id="dCO69aYNQCSRGYiKLIwo-32" value="" style="endArrow=none;html=1;rounded=0;entryX=0.5;entryY=1;entryDx=0;entryDy=0;exitX=0.5;exitY=0;exitDx=0;exitDy=0;" edge="1" parent="1" source="dCO69aYNQCSRGYiKLIwo-20" target="dCO69aYNQCSRGYiKLIwo-21">
          <mxGeometry width="50" height="50" relative="1" as="geometry">
            <mxPoint x="410" y="-50" as="sourcePoint" />
            <mxPoint x="460" y="-100" as="targetPoint" />
          </mxGeometry>
        </mxCell>
        <mxCell id="dCO69aYNQCSRGYiKLIwo-33" value="" style="endArrow=none;html=1;rounded=0;entryX=0;entryY=0.5;entryDx=0;entryDy=0;" edge="1" parent="1" target="dCO69aYNQCSRGYiKLIwo-21">
          <mxGeometry width="50" height="50" relative="1" as="geometry">
            <mxPoint x="130" y="-480" as="sourcePoint" />
            <mxPoint x="460" y="-100" as="targetPoint" />
          </mxGeometry>
        </mxCell>
        <mxCell id="dCO69aYNQCSRGYiKLIwo-35" value="new&amp;nbsp;&lt;span style=&quot;background-color: transparent; color: light-dark(rgb(0, 0, 0), rgb(255, 255, 255));&quot;&gt;user?&lt;/span&gt;&lt;div&gt;run&lt;/div&gt;&lt;div&gt;create a dataset&lt;/div&gt;&lt;div&gt;by&amp;nbsp;&lt;/div&gt;" style="rhombus;whiteSpace=wrap;html=1;fillColor=#f8cecc;strokeColor=#b85450;" vertex="1" parent="1">
          <mxGeometry x="-40" y="-530" width="150" height="110" as="geometry" />
        </mxCell>
      </root>
    </mxGraphModel>
  </diagram>
</mxfile>
